<?xml version="1.0" standalone="no"?>
<!DOCTYPE svg PUBLIC "-//W3C//DTD SVG 20010904//EN"
 "http://www.w3.org/TR/2001/REC-SVG-20010904/DTD/svg10.dtd">
<svg version="1.0" xmlns="http://www.w3.org/2000/svg"
 width="700.000000pt" height="700.000000pt" viewBox="0 0 700.000000 700.000000"
 preserveAspectRatio="xMidYMid meet">
<metadata>
Created by potrace 1.14, written by Peter Selinger 2001-2017
</metadata>
<g transform="translate(0.000000,700.000000) scale(0.100000,-0.100000)"
fill="#000000" stroke="none">
<path d="M3488 6566 c-1 -2 -41 -6 -88 -9 -225 -15 -452 -95 -650 -230 -97
-67 -261 -231 -327 -328 -86 -126 -178 -328 -197 -432 -2 -15 -7 -35 -10 -45
-14 -46 -18 -89 -21 -227 l-4 -150 -69 -50 c-166 -121 -305 -267 -388 -410
-27 -46 -52 -84 -55 -85 -19 -1 -99 230 -113 325 -4 22 -9 54 -11 70 -11 70
-15 131 -21 320 -5 159 -10 208 -23 240 -74 169 -307 175 -394 10 -18 -35 -21
-58 -21 -170 0 -130 10 -359 20 -425 50 -357 156 -605 349 -817 l68 -74 -2
-397 c-1 -218 -3 -398 -5 -399 -1 -1 -208 -3 -460 -3 -442 -1 -460 -2 -499
-21 -22 -12 -50 -31 -62 -42 -85 -81 -87 -227 -4 -308 68 -66 47 -64 557 -66
255 0 465 -3 467 -5 1 -1 5 -95 8 -208 3 -113 9 -221 12 -240 4 -29 21 -125
30 -180 6 -31 28 -109 61 -212 l35 -107 -89 -88 c-325 -320 -468 -638 -486
-1077 -5 -114 11 -171 63 -223 90 -90 240 -83 320 14 39 48 48 82 55 211 3 56
8 113 11 125 2 12 7 38 9 57 9 60 65 220 98 279 17 31 51 84 75 118 48 67 159
191 165 183 185 -243 371 -415 603 -555 169 -103 404 -195 596 -235 92 -18
117 -22 229 -36 65 -7 296 -7 360 0 25 3 68 9 95 12 268 32 609 166 845 332
175 124 359 305 488 482 6 8 110 -107 160 -178 131 -184 185 -345 198 -592 7
-129 26 -183 76 -225 74 -63 166 -74 246 -30 87 47 120 116 117 245 -10 433
-173 794 -500 1108 l-76 73 21 60 c37 109 78 265 90 345 6 43 14 90 16 104 3
14 8 117 11 230 3 113 7 207 9 209 1 2 204 3 450 3 247 0 461 4 478 9 71 21
134 87 154 162 9 35 -1 107 -20 147 -22 45 -85 97 -132 109 -30 7 -191 11
-490 11 l-446 0 -1 368 c-1 202 -1 376 -1 388 0 11 22 44 49 71 205 217 318
480 367 863 11 80 20 272 20 415 0 123 -3 145 -21 180 -43 81 -123 127 -211
120 -59 -5 -96 -21 -136 -61 -58 -58 -63 -81 -70 -304 -3 -113 -8 -216 -10
-230 -2 -14 -7 -56 -11 -95 -9 -88 -55 -273 -87 -345 l-24 -54 -42 76 c-88
161 -217 306 -379 425 -45 34 -86 63 -91 65 -5 1 -12 64 -15 138 -6 131 -12
187 -23 222 -2 9 -7 27 -9 40 -11 56 -61 190 -101 271 -82 166 -221 339 -352
438 -31 24 -59 46 -62 49 -13 14 -113 73 -187 109 -145 72 -315 118 -473 127
-47 3 -90 7 -97 9 -6 2 -13 2 -15 1z m195 -461 c346 -71 616 -356 681 -718 4
-23 2 -27 -12 -23 -72 22 -289 65 -412 80 -221 29 -620 29 -850 0 -132 -16
-359 -65 -432 -93 l-28 -10 6 47 c12 102 83 277 153 372 33 46 156 169 201
201 78 56 209 118 285 135 141 32 281 35 408 9z m162 -1089 c22 -3 58 -8 81
-11 289 -39 569 -140 736 -266 190 -142 310 -341 352 -584 12 -64 14 -238 14
-880 0 -896 -1 -903 -73 -1119 -78 -238 -197 -428 -380 -611 -136 -136 -265
-228 -427 -305 -131 -61 -347 -127 -411 -126 -17 1 -18 73 -18 1653 l0 1651
-27 53 c-68 135 -239 162 -345 56 -30 -30 -46 -56 -54 -92 -9 -38 -12 -437
-12 -1683 0 -899 -1 -1636 -4 -1638 -11 -12 -248 49 -327 83 -238 103 -365
187 -525 348 -132 132 -216 246 -294 401 -48 96 -115 277 -124 339 -3 17 -8
41 -11 55 -3 14 -9 41 -13 60 -4 19 -8 402 -10 850 -3 778 -2 819 17 905 42
195 112 326 245 460 107 109 181 160 329 230 174 83 375 138 626 172 70 10
589 9 655 -1z"/>
</g>
</svg>
